<svg xmlns="http://www.w3.org/2000/svg" width="80" height="80" viewBox="0 0 400 343.202"><g fill-rule="evenodd"><path d="M47.039 93.897c-5.019 2.787-7.341 5.97-8.389 11.495-.757 3.989-.802 159.946-.048 164.175.425 2.384 1.023 3.983 2.449 6.552.692 1.247 4.011 4.168 5.578 4.909.698.33 1.839.89 2.538 1.245 1.205.613 2.449.645 24.615.645 23.503 0 24.417-.047 23.258-1.206-.283-.283-.621-.849-.75-1.258-.13-.41-.536-1.065-.902-1.458-.365-.392-1.134-1.717-1.708-2.944-.573-1.228-1.181-2.464-1.35-2.747-.866-1.453-3.014-6.222-3.216-7.141-.127-.579-.453-1.236-.724-1.461-.271-.225-.493-.785-.493-1.245 0-.459-.293-1.483-.65-2.275-.358-.792-1.053-3.373-1.545-5.736l-.895-4.295v-78.904c0-53.733-.114-79.114-.356-79.567-.344-.643-.88-.663-17.253-.63l-16.898.034-3.261 1.812m273.513-1.337c-.115.299-.209 36.077-.209 79.507v78.964l-.849 4.099c-.467 2.255-1.155 4.833-1.528 5.73-.374.896-.846 2.279-1.049 3.074-.203.795-.519 1.538-.703 1.651-.184.114-.334.496-.334.85 0 .601-1.726 4.36-3.626 7.9a60.827 60.827 0 0 0-1.383 2.747c-.304.66-.923 1.693-1.377 2.294-.453.601-.824 1.234-.824 1.406 0 .172-.306.59-.679.927-.373.338-.596.748-.495.912.432.698 47.113.352 48.487-.36.699-.362 1.865-.941 2.592-1.288 3.407-1.623 6.414-5.707 7.924-10.758.65-2.177.67-4.197.785-82.06l.118-79.829-.719-2.403c-.395-1.322-.897-3.01-1.114-3.751-.985-3.35-4.155-6.656-8.233-8.585-1.076-.51-2.047-1.071-2.156-1.248-.388-.628-34.386-.411-34.628.221M95.536 285.902c.331.086.872.086 1.202 0 .331-.086.06-.157-.601-.157s-.931.071-.601.157" fill="#5ccc6c"/><path d="M102.833 30.806c-3.501 1.215-6.019 2.909-9.011 6.058-2.398 2.524-2.764 3.08-5.117 7.771l-1.291 2.575-.237 25.408c-.369 39.686-.338 178.502.04 181.416.449 3.462 2.007 8.421 4.273 13.605.248.567.563 1.417.701 1.889s.448 1.09.689 1.373c.241.284 1.08 1.829 1.866 3.434 5.505 11.254 12.992 18.049 30.085 27.31 1.408.762 2.834 1.621 3.169 1.908.335.286 1.376.885 2.313 1.33 1.464.695 7.179 3.858 8.743 4.839.283.177.824.46 1.202.627.377.168 2.025 1.08 3.662 2.027 1.636.947 3.283 1.82 3.66 1.94.376.119.872.443 1.101.719.229.276.64.501.913.501s1.171.464 1.994 1.031c.823.566 1.642 1.03 1.818 1.03.177 0 .69.287 1.14.639.45.352 1.189.755 1.641.897.451.142 1.867.934 3.145 1.761 1.278.827 2.685 1.659 3.127 1.849.441.19 1.035.475 1.318.634 4.964 2.783 7.248 3.369 11.642 2.986 5.263-.458 12.33-6.32 15.329-12.715.265-.566.624-1.262.796-1.545.172-.283.677-1.674 1.122-3.09l.81-2.575V129.614l-.772-4.755c-.425-2.616-.773-5.289-.773-5.94 0-.652-.243-1.656-.541-2.231-.297-.575-.669-1.765-.826-2.644-.285-1.595-1.489-4.838-2.759-7.435-.823-1.681-4.705-8.927-5.457-10.183-2.062-3.45-2.577-4.258-2.813-4.416-.339-.228-2.024-2.703-2.024-2.973 0-.971-7.622-9.251-13.059-14.187-1.56-1.417-3.257-2.962-3.769-3.434a415.966 415.966 0 0 0-6.681-6.008 1208.985 1208.985 0 0 1-5.811-5.163c-4.009-3.585-10.967-9.635-14.794-12.863a351.855 351.855 0 0 1-4.136-3.54 69.837 69.837 0 0 0-2.683-2.232 523.136 523.136 0 0 1-5.259-4.214c-9.14-7.396-12.607-8.632-18.486-6.59m190.847.049c-3.467 1.207-13.962 9.111-21.982 16.555a66.776 66.776 0 0 1-2.747 2.351 97.294 97.294 0 0 0-2.685 2.25c-.566.503-1.793 1.559-2.725 2.348a90.237 90.237 0 0 0-2.244 1.95c-.932.874-7 6.289-7.876 7.027-3.649 3.078-14.151 12.705-18.007 16.507-3.59 3.539-9.148 10.279-9.148 11.092 0 .141-.23.558-.511.926-1.468 1.927-2.986 4.295-3.749 5.85-.471.961-1.556 2.93-2.411 4.376-.855 1.446-1.651 3.011-1.768 3.476-.116.466-.429 1.026-.693 1.246-.265.22-.482.622-.482.895 0 .272-.387 1.341-.86 2.375s-1.019 2.607-1.213 3.497c-.195.889-.658 2.506-1.029 3.593-.371 1.086-.677 2.786-.68 3.777-.004.99-.245 2.882-.536 4.204-1.291 5.864-1.53 179.13-.252 182.661.273.756.62 1.854.77 2.44.675 2.644 4.21 8.023 7.126 10.844 2.014 1.949 2.839 2.682 3.02 2.682.09 0 1.056.572 2.146 1.271l1.98 1.27 4.128.017 4.127.017 4.285-2.171c2.356-1.194 5.057-2.646 6.001-3.227s2.799-1.619 4.12-2.307c1.322-.688 3.022-1.636 3.777-2.107.756-.471 1.76-1.043 2.232-1.271.472-.228 1.09-.559 1.373-.735a8.343 8.343 0 0 1 1.03-.532c.284-.115 1.442-.747 2.576-1.404 1.133-.656 2.6-1.461 3.261-1.788.661-.328 1.279-.694 1.374-.814.094-.121.712-.468 1.373-.773.661-.304 1.974-1.022 2.919-1.595.944-.573 2.875-1.608 4.291-2.299 1.417-.692 2.835-1.497 3.152-1.791.318-.294 1.631-1.065 2.919-1.714s3.053-1.677 3.923-2.285c.87-.608 2.184-1.435 2.919-1.836a51.279 51.279 0 0 0 2.881-1.743c.85-.557 1.777-1.121 2.06-1.252.284-.131 1.154-.713 1.935-1.293a66.902 66.902 0 0 1 2.199-1.57c4.671-3.088 9.94-9.19 13.195-15.278 5.233-9.791 8.067-17.179 8.755-22.824.397-3.259.445-137.114.064-180.962l-.225-25.931-.772-.982c-.425-.54-.773-1.198-.773-1.461 0-2.402-7.217-10.523-10.987-12.363-4.774-2.33-7.478-2.608-11.556-1.189" fill="#3474fb"/><path d="M102.534 27.366c-.927.927-.097 1.132 4.593 1.132 4.644 0 4.796-.023 4.402-.654-.41-.656-8.392-1.081-8.995-.478m190.903-.002c-.929.929-.101 1.134 4.589 1.134 4.657 0 5.082-.084 4.544-.896-.271-.409-8.742-.629-9.133-.238M99.719 28.88c-.205.33.38.981.882.981.094 0 .384-.135.645-.3.607-.384.195-1.063-.645-1.063-.356 0-.752.172-.882.382m12.899.113c0 .272.141.581.312.687.525.325 1.373-.178 1.175-.696-.245-.637-1.487-.631-1.487.009m178.197.192c0 .565.178.709.773.624.425-.06.773-.341.773-.624 0-.284-.348-.565-.773-.625-.595-.085-.773.059-.773.625m12.769-.09c.167.868 1.184.945 1.404.106.149-.569.021-.703-.668-.703-.624 0-.82.159-.736.597M97.162 30.4c-.223.587-.485.767-.892.611a.843.843 0 0 0-.955.285c-.209.278-.65.608-.98.732-.331.124-.601.462-.601.751 0 .306-.303.526-.724.526-.518 0-.664.153-.515.543.115.299.209.608.209.687 0 .078.309.143.687.143.457 0 .686-.229.686-.687 0-.381.229-.686.515-.686a.516.516 0 0 0 .515-.515c0-.347.347-.515 1.062-.515.774 0 1.111-.187 1.242-.687.1-.38.469-.687.826-.687.907 0 .854-1.211-.056-1.28-.456-.034-.814.239-1.019.779m18.088-.643c-.461.461-.211 1.144.418 1.144.358 0 .727.307.826.687.099.378.426.687.727.687.688 0 .701-.484.032-1.153-.283-.283-.515-.664-.515-.846 0-.182-.244-.425-.543-.54-.672-.258-.666-.258-.945.021m173.162.361c0 .277-.295.581-.655.676-1.044.273-1.184 1.481-.171 1.481.597 0 .826-.191.826-.687 0-.444.229-.687.647-.687.355 0 .722-.289.815-.643.129-.496-.019-.644-.647-.644-.488 0-.815.202-.815.504m17.854.129c0 .425.24.654.687.654.377 0 .686-.213.686-.475 0-.261-.309-.555-.686-.654-.51-.133-.687-.011-.687.475m1.545.998c-.319.515.126 1.03.89 1.03.372 0 .766.231.874.515.109.283.428.515.708.515.281 0 .592.309.69.686.099.378.376.687.615.687s.516.309.614.687c.099.377.426.687.727.687.328 0 .547.29.547.723 0 .502.158.663.515.526.293-.112.515-.008.515.241 0 .241.233.738.516 1.105.43.555.481.566.307.065-.122-.35-.041-.6.196-.6.234 0 .107-.379-.302-.899-.389-.494-.621-1.039-.515-1.21.106-.172.065-.29-.09-.263-.78.136-1.142-.098-1.142-.739 0-.389-.137-.622-.304-.519-.378.234-1.148-.641-.837-.951.124-.125-.109-.226-.518-.226-.409 0-.747-.193-.75-.429-.017-1.2-2.694-2.541-3.256-1.631m-189.246 1.421c.219.351.67.639 1.003.639.375 0 .604.26.604.686 0 .378.215.687.478.687s.567.232.676.515c.109.283.434.515.723.515.297 0 .526.299.526.687 0 .458.229.687.687.687.377 0 .686-.155.686-.344 0-.189-.163-.343-.363-.343-.2 0-.266-.158-.146-.352.119-.194.016-.309-.229-.258-.246.052-.502-.265-.568-.704-.08-.524-.289-.734-.609-.612-.32.123-.488-.045-.488-.488 0-.447-.232-.676-.687-.676-.381 0-.686-.229-.686-.515 0-.535-.031-.551-1.261-.683-.646-.069-.692.006-.346.559m164.791 1.345c-.109.419-.376.633-.654.526-.3-.115-.47.064-.47.495 0 .459-.233.676-.724.676-.518 0-.664.154-.515.543.115.299.209.608.209.687 0 .492.982.019 1.129-.543.099-.378.426-.687.727-.687s.547-.232.547-.515c0-.286.305-.515.687-.515.458 0 .687-.229.687-.687 0-.949-1.374-.932-1.623.02M91.341 35.165c-.185.488-.572.887-.86.887-.288 0-.524.215-.524.478s-.232.567-.515.676c-.283.108-.515.603-.515 1.099 0 .601-.22.959-.663 1.074-.842.221-.8 1.479.049 1.479.385 0 .614-.256.614-.686 0-.378.229-.687.509-.687.279 0 .602-.375.717-.834.115-.458.427-.917.693-1.019.267-.102.484-.481.484-.843 0-.378.305-.737.717-.845.45-.117.674-.409.601-.784-.186-.959-.941-.956-1.307.005m33.207 2.306c.105.402.477.807.826.898.349.091.635.38.635.641s.236.475.525.475c.29 0 .609.217.711.481.101.265.483.559.847.655.365.095.663.402.663.681 0 .303.418.57 1.031.66l1.032.151-.767-.713c-.422-.392-.871-.68-.997-.639-.127.041-.329-.321-.45-.804-.147-.584-.388-.813-.721-.686-.338.13-.501-.035-.501-.504 0-.383-.156-.6-.346-.482-.19.117-.449-.067-.576-.409-.478-1.294-2.242-1.667-1.912-.405m154.594-.046c-.472.369-1.052.675-1.288.679-.236.004-.429.155-.429.335 0 .18-.658.991-1.461 1.803-2.34 2.362-2.536 2.676-1.671 2.676.419 0 .728-.219.728-.515 0-.286.306-.515.687-.515.378 0 .687-.147.687-.327 0-.426 1.65-2.076 2.076-2.076.18 0 .327-.236.327-.524 0-.287.384-.669.852-.847.566-.215.784-.5.65-.85-.243-.633-.121-.65-1.158.161M315.88 40c0 .629.183.858.687.858.764 0 .906-.673.274-1.304-.64-.64-.961-.491-.961.446M86.753 42.117c-.126.126-.229.512-.229.859 0 .772.877.835 1.166.083.333-.87-.336-1.543-.937-.942m230.5.421c0 .358.232.739.515.848.35.134.515.683.515 1.713 0 1.256.125 1.549.729 1.707.943.246.789-3.073-.168-3.608-.308-.172-.561-.538-.561-.812a.508.508 0 0 0-.515-.498c-.283 0-.515.293-.515.65m-184.835.609c-.418.419-.237 1.145.286 1.145.283 0 .515.246.515.547 0 .301.309.628.687.727.377.099.686.393.686.654 0 .262.309.475.687.475.458 0 .687-.229.687-.686 0-.458-.229-.687-.687-.687-.382 0-.687-.229-.687-.515a.516.516 0 0 0-.515-.515c-.286 0-.515-.305-.515-.687 0-.662-.672-.93-1.144-.458m139.599.015c-.236.086-.429.376-.429.643 0 .268-.291.487-.647.487-.358 0-.727.307-.826.688-.116.442-.366.617-.701.488-.362-.139-.492-.009-.429.428.11.764 1.573 1.084 1.573.345 0-.276.232-.591.515-.7.283-.109.515-.434.515-.723 0-.29.223-.526.495-.526.624 0 1.052-.659.66-1.017-.163-.149-.49-.2-.726-.113M85.215 45.408c-.056 1.584.227 2.315.811 2.091.806-.309.682-3.207-.137-3.207-.479 0-.644.274-.674 1.116m50.98 1.516c-.404.404-.247.717.451.899.579.152.629.081.332-.475-.387-.721-.451-.756-.783-.424m131.616.286c0 .284-.117.515-.261.515-.143 0-.453.309-.689.687-.376.601-.343.687.261.687.379 0 .689-.214.689-.475 0-.262.309-.556.687-.655.378-.099.687-.426.687-.727 0-.318-.288-.547-.687-.547-.382 0-.687.229-.687.515m52.289.797c-.315.194-.438 5.484-.515 22.047l-.1 21.791 17.682-.098 17.683-.098 1.717.898c.944.494 2.18 1.193 2.746 1.554.567.36 1.399.846 1.849 1.079.91.47 4.16 4.589 4.16 5.272 0 .239.122.486.271.549.149.063.569 1.042.935 2.175.918 2.845 1.25 166.186.34 167.484-.284.406-.516 1.128-.516 1.605 0 1.935-5.282 8.593-6.817 8.593-.216 0-.393.152-.393.337 0 .185-.387.434-.86.553-.472.118-1.438.511-2.145.873-1.235.632-2.285.657-25.789.628l-24.501-.031-.477.919c-1.043 2.011-2.537 1.894 22.895 1.793 21.845-.087 23.393-.132 23.708-.694.278-.497.829-.601 3.2-.601 2.145 0 2.912-.121 3.05-.482.102-.266.659-.587 1.239-.714.579-.128 1.053-.451 1.053-.719 0-.269.237-.488.526-.488.289 0 .615-.232.723-.515.109-.284.428-.515.708-.515.281 0 .592-.309.69-.687.099-.378.394-.687.655-.687s.475-.147.475-.327c0-.426 1.65-2.076 2.076-2.076.18 0 .327-.541.327-1.202 0-.809.16-1.202.488-1.202.272 0 .595-.494.73-1.115.133-.614.416-1.227.628-1.361.671-.426.715-170.227.045-170.227-.343 0-.517-.339-.517-1.007 0-.706-.206-1.072-.687-1.225-.511-.162-.687-.52-.687-1.397 0-.818-.157-1.178-.515-1.178-.464 0-.667-.408-.555-1.116.022-.142-.251-.258-.606-.258-.358 0-.727-.306-.827-.686-.098-.378-.425-.687-.726-.687s-.548-.232-.548-.515c0-.283-.213-.515-.475-.515-.261 0-.56-.329-.666-.731-.151-.58-.381-.694-1.112-.554-.703.134-.962.022-1.091-.471-.122-.468-.481-.648-1.291-.648-.833 0-1.168-.176-1.301-.686-.176-.675-.473-.687-17.465-.698-16.374-.011-17.326-.046-18.055-.654l-.77-.642-.088-20.45c-.069-15.871-.182-20.392-.504-20.193m-235.551.315c-.337.116-.429 4.603-.429 20.891v20.744H66.118c-17.702 0-18.007.012-18.221.687-.153.483-.52.686-1.236.686-.588 0-1.101.218-1.215.515-.111.29-.622.516-1.168.516-.668 0-1.038.213-1.188.686-.12.378-.354.687-.52.687-.434 0-2.055 1.557-2.055 1.973 0 .193-.319.434-.708.535-.389.102-.68.391-.646.641.143 1.054-.052 1.658-.534 1.658-.287 0-.515.305-.515.686 0 .378-.214.687-.475.687-.541 0-.887 1.03-.894 2.661-.003.708-.162 1.085-.434 1.03-.342-.068-.447 16.907-.516 83.777-.076 74.404-.028 83.863.429 83.863.335 0 .531.361.559 1.03.024.566.082 1.184.129 1.373a6.8 6.8 0 0 1 .129.858c.023.284.223.477.443.43.22-.048.513.436.652 1.074.139.638.395 1.256.569 1.373.174.118.417.484.539.814.122.331.442.601.71.601.269 0 .578.232.687.515.109.284.43.515.713.515.325 0 .439.197.309.536-.136.354.034.598.502.72.39.102.791.402.893.667.102.266.649.481 1.225.481.675 0 1.041.173 1.041.492 0 .27.295.585.655.699.36.115.742.434.847.71.147.383.846.502 2.934.502 2.253 0 2.8.107 3.076.601.314.561 1.783.606 22.249.676 12.052.042 22.552.081 23.334.086.911.007 1.415.165 1.405.44-.043 1.148.137 1.631.607 1.631.286 0 .515.305.515.686 0 .458.229.687.687.687.378 0 .689.193.693.429.009.666 1.655 2.069 2.187 1.865.325-.125.425.012.315.431-.174.666.468 1.058 1.489.909.918-.135 1.05-1.231.148-1.231-.392 0-.712-.139-.712-.309 0-.171-.463-.472-1.03-.669-.566-.198-1.03-.515-1.03-.705 0-.443-1.481-1.93-2.197-2.204-.303-.116-.55-.586-.55-1.044 0-.457-.232-.921-.515-1.03-.283-.108-.515-.43-.515-.715 0-1.09-1.19-2.552-1.8-2.211-1.194.668-48.849.218-49.607-.469-.365-.33-.934-.601-1.264-.601-1.642 0-6.218-4.46-7.486-7.296-.233-.519-.534-.944-.67-.944-.135 0-.353-.734-.484-1.631-.13-.897-.449-2.048-.708-2.558-.7-1.38-.703-162.249-.003-163.639.257-.51.568-1.582.69-2.382.204-1.331 1.09-3.299 1.944-4.317.188-.225.88-1.132 1.537-2.016.656-.883 1.504-1.705 1.883-1.825.379-.121.689-.338.689-.483 0-.145.889-.703 1.974-1.239 1.086-.535 2.224-1.184 2.53-1.441.456-.383 3.771-.449 18.541-.369l17.985.097-.096-20.936c-.095-20.765-.19-22.871-1.02-22.587m54.678 1.12c-.28.453.096 1.03.671 1.03.252 0 .547.232.655.515.109.283.435.515.724.515.297 0 .526.299.526.687 0 .378.215.687.478.687s.567.231.676.515c.108.283.434.515.723.515s.526.246.526.547c0 .301.309.628.687.726.377.099.686.394.686.655s.232.475.515.475c.871 0 .575-.813-.675-1.855-.655-.546-1.109-1.126-1.009-1.288.101-.162-.076-.394-.391-.516-.835-.32-2.216-1.672-2.216-2.168 0-.238-.228-.339-.515-.229-.351.134-.515-.019-.515-.478 0-.719-1.154-.967-1.546-.333m123.777 1.576c0 .266-.309.484-.686.484-.455 0-.687.229-.687.676 0 .468-.163.613-.529.473-.291-.112-.505-.068-.475.097.135.736-.066 1.158-.552 1.158-.289 0-.615.231-.723.515-.109.283-.403.515-.653.515s-.549.294-.663.655c-.115.36-.434.741-.71.847-.74.284-.61 1.09.185 1.15.468.035.686-.16.686-.614 0-.368.235-.665.526-.665.289 0 .615-.232.724-.515.108-.283.394-.515.636-.515.241 0 .519-.309.617-.687.099-.377.426-.686.727-.686s.547-.232.547-.515c0-.284.232-.515.515-.515a.51.51 0 0 0 .515-.503c0-.277.323-.676.716-.887.744-.398.659-.751-.211-.879-.277-.041-.505.144-.505.411m-114.106 6.55c-.446.447-.219 1.101.458 1.316.378.12.687.439.687.71 0 .671 1.249.625 1.51-.055.14-.365-.02-.607-.479-.727-.378-.099-.688-.377-.688-.618s-.244-.532-.543-.647c-.672-.258-.666-.258-.945.021m106.019.258c-.636.464-.447 1.214.277 1.104.618-.094 1.287-.555 1.287-.888 0-.528-.957-.66-1.564-.216m-103.295 2.169c-.426.426-.181 1.047.481 1.22.378.099.687.426.687.727s.231.547.515.547c.283 0 .515.214.515.475s.309.556.686.655c.378.099.687.426.687.727 0 .318.287.547.687.547.378 0 .687-.222.687-.492 0-.271-.309-.59-.687-.71-.378-.12-.687-.517-.687-.882 0-.364-.232-.663-.515-.663a.517.517 0 0 1-.515-.515c0-.286-.305-.515-.687-.515-.377 0-.686-.215-.686-.478 0-.518-.834-.977-1.168-.643m100.996-.016c-.33.087-.601.378-.601.647a.48.48 0 0 1-.467.49c-.257 0-.759.403-1.116.896-1.024 1.416-1.538 1.872-1.874 1.664-.172-.106-.22.047-.107.341.184.479-.193.698-.985.573-.142-.022-.258.268-.258.646 0 .611-.351.844-1.103.732-.135-.021-.165.173-.067.429.106.274-.112.542-.527.65-.939.246-.926 1.279.017 1.279.502 0 .663-.157.526-.515-.132-.343.014-.515.438-.515.35 0 .717-.309.816-.687.099-.377.426-.686.727-.686.3 0 .547-.232.547-.515 0-.284.231-.515.515-.515a.506.506 0 0 0 .515-.492c0-.271.309-.59.686-.71.378-.12.687-.439.687-.71 0-.27.309-.492.687-.492.501 0 .687-.229.687-.847 0-.613.142-.793.515-.65.357.137.515-.024.515-.526 0-.398-.039-.706-.086-.684a9.376 9.376 0 0 1-.687.197m-95.933 5.1c-.112.292-.117.616-.012.721.301.301.924-.209.924-.756 0-.659-.655-.634-.912.035m2.285 2.732c0 .283.251.515.557.515.456 0 .48-.093.13-.515-.235-.283-.486-.515-.557-.515-.072 0-.13.232-.13.515m1.809 1.229c-.034.45.171.66.648.66.4 0 .771.282.871.663.103.394.368.588.654.478.314-.12.481.053.481.499 0 .394.291.759.687.862.378.099.687.426.687.727s.236.547.526.547c.289 0 .614.232.723.515.109.284.413.515.676.515.263 0 .478.309.478.687 0 .458.229.687.687.687.381 0 .687.229.687.515 0 .283.213.515.475.515.261 0 .56.324.663.721.112.426.348.623.578.481.231-.143.467.054.579.48.103.397.385.721.626.721s.528.232.636.515c.221.576.906.706.906.172 0-.431-1.462-1.916-1.781-1.81-.131.044-.33-.212-.443-.569-.113-.356-.441-.738-.729-.849-.288-.11-.435-.345-.325-.522.109-.176-.099-.415-.462-.53-.363-.115-.747-.436-.852-.712-.106-.276-.43-.502-.719-.502-.302 0-.526-.301-.526-.707 0-.388-.146-.616-.326-.505-.179.111-.494-.112-.699-.495-.205-.383-.599-.696-.875-.696-.279 0-.503-.315-.503-.707 0-.414-.152-.613-.367-.48-.201.124-.451-.098-.555-.495-.103-.397-.461-.721-.795-.721s-.678-.275-.766-.61c-.223-.852-1.481-.893-1.545-.05m82.054-.467a.703.703 0 0 0-.43.617c0 .255-.309.561-.686.681-.378.12-.687.435-.687.699 0 .287-.208.402-.515.284-.357-.137-.515.024-.515.526 0 .655-.358.891-1.141.755-.156-.027-.196.092-.09.264.237.384-.632 1.16-.947.846-.124-.125-.225.108-.225.518 0 .515-.212.743-.687.743-.382 0-.687.229-.687.515a.516.516 0 0 1-.515.515c-.286 0-.515.306-.515.687 0 .458-.229.687-.687.687-.387 0-.686.229-.686.526 0 .289-.232.614-.515.723-.284.109-.515.395-.515.636s-.309.519-.687.618c-.378.099-.687.426-.687.727 0 .318.288.547.687.547.458 0 .687-.229.687-.687 0-.378.215-.687.478-.687s.567-.231.676-.515c.109-.283.434-.515.723-.515.297 0 .526-.299.526-.686 0-.458.229-.687.687-.687.381 0 .687-.229.687-.515 0-.283.231-.515.515-.515.286 0 .515-.305.515-.687 0-.458.228-.687.686-.687.382 0 .687-.228.687-.515 0-.283.246-.515.547-.515.301 0 .628-.309.727-.686.099-.378.393-.687.654-.687.262 0 .475-.304.475-.676 0-.46.165-.613.515-.478.358.137.515-.024.515-.526 0-.598.209-.723 1.202-.723.893 0 1.202-.148 1.202-.573 0-.314-.098-.474-.217-.355s-.467.089-.772-.068c-.306-.157-.749-.216-.985-.131M173.391 81.03c0 .382.228.687.515.687.286 0 .515.305.515.686 0 .4.228.687.547.687.301 0 .628.309.727.687.098.378.465.687.815.687.885 0 .528-.769-1.213-2.612-1.591-1.685-1.906-1.821-1.906-.822m56.995-.052c0 .391-.299.787-.686.91-.378.12-.687.435-.687.699 0 .267-.21.401-.471.301-.304-.117-.531.131-.639.697-.211 1.103 1.068 1.284 1.354.192.099-.378.393-.687.654-.687.262 0 .475-.309.475-.687 0-.395.229-.686.54-.686.32 0 .495-.234.43-.573-.164-.846-.97-.984-.97-.166m-2.922 4.178c-.118.192-.359.26-.535.151-.176-.108-.32.084-.32.427 0 .343-.315.821-.7 1.062-.385.24-.618.569-.518.73.099.161-.088.272-.416.246-.435-.034-.627.256-.705 1.069-.09.933.009 1.116.601 1.116.523 0 .708-.22.708-.841 0-.463.205-.965.455-1.116.251-.151.555-.545.676-.876.122-.33.458-.6.747-.6.332 0 .526-.317.526-.859 0-.913-.167-1.077-.519-.509m-50.207.738c-.026.346.175.63.447.63.271 0 .493.309.493.686 0 .378.221.687.492.687.27 0 .54.346.6.769.14.975 1.312 1.279 1.312.34 0-.766-1.373-2.482-1.985-2.482-.366 0-.549-.405-.478-1.059.012-.11-.171-.2-.406-.2-.235 0-.448.283-.475.629m3.344 4.75c0 .381.229.686.515.686.286 0 .515.306.515.687 0 .431.229.687.614.687.367 0 .634-.276.665-.687.028-.378-.153-.687-.402-.687-.25 0-.534-.309-.633-.686-.099-.378-.426-.687-.727-.687-.318 0-.547.287-.547.687m42.403-.342c-.27.436.196 1.372.684 1.372.746 0 .864-1.293.135-1.483-.355-.093-.724-.043-.819.111m-40 4.079c0 .357.307.726.687.826.5.131.687.468.687 1.242 0 .715.168 1.062.515 1.062.32 0 .515.324.515.858 0 .519.196.858.494.858.902 0 1.008-.782.195-1.44-.533-.432-.783-.985-.763-1.689.022-.776-.098-.998-.463-.858-.347.133-.493-.063-.493-.659 0-.618-.186-.847-.687-.847-.444 0-.687.229-.687.647m37.526-.046c-.121.33-.425.724-.676.875-.765.462-.58 2.301.232 2.301.506 0 .687-.229.687-.869 0-.478.231-.958.515-1.067.689-.265.68-1.841-.011-1.841-.289 0-.625.27-.747.601m-2.434 4.83c.06.313.392.624.737.691.445.085.594-.054.511-.479-.064-.33-.396-.641-.737-.69-.419-.062-.585.094-.511.478m-31.315 1.399c0 .358.232.739.515.848.372.142.515-.038.515-.65 0-.525-.196-.848-.515-.848-.283 0-.515.293-.515.65m30.417-.091c-.118.307-.038.77.177 1.03.315.379.18.514-.68.686-.947.189-1.073.35-1.073 1.373 0 .801-.159 1.159-.515 1.159-.324 0-.515.327-.515.884 0 1.233 1.163.996 1.309-.267.074-.638.259-.864.601-.733.372.143.494-.11.494-1.026 0-.914.17-1.269.686-1.433.481-.153.687-.52.687-1.225 0-1.098-.803-1.406-1.171-.448m-29.387 2.663c0 1.26 1.182 1.405 1.274.157.056-.764-.074-.975-.601-.975-.48 0-.673.234-.673.818m1.374 2.272c0 .381.228.686.515.686.286 0 .515-.305.515-.686 0-.382-.229-.687-.515-.687-.287 0-.515.305-.515.687m1.03 2.728c0 .68.204 1.022.686 1.148.585.153.687.468.687 2.129 0 2.518.811 2.463.961-.065.088-1.5.008-1.756-.599-1.915-.566-.148-.663-.373-.504-1.171.165-.825.08-.996-.517-1.041-.568-.043-.714.145-.714.915m23.403-.71c-.635.402-.361 1.898.373 2.038.482.092.601-.129.601-1.113 0-1.261-.178-1.43-.974-.925m-1.429 4.505c0 .984-.144 1.374-.509 1.374-.655 0-.885 1.074-.734 3.433.158 2.479.135 2.404.728 2.404.417 0 .515-.554.515-2.919 0-2.256.108-2.918.475-2.918.561 0 .908-1.091.654-2.06-.333-1.275-1.129-.791-1.129.686m-19.571 3.09c0 1.761.091 2.061.623 2.061.75 0 1.049-2.833.382-3.635-.746-.9-1.005-.495-1.005 1.574m1.373 6.513c0 1.986.088 2.359.515 2.195.384-.147.515-.758.515-2.392 0-1.723-.11-2.195-.515-2.195-.408 0-.515.494-.515 2.392m16.193-2.083c-.603.372-.479 5.528.133 5.528.52 0 .913-2.019.791-4.071-.093-1.591-.267-1.863-.924-1.457m-15.163 98.755c0 86.857.001 86.987.689 86.936 1.013-.077.925-173.686-.088-173.834-.571-.084-.601 4.249-.601 86.898m13.802-86.614c-.718.866-.359 173.44.362 173.579.571.11.6-4.215.6-86.948 0-49.715-.129-87.064-.301-87.064-.166 0-.463.195-.661.433m95.04 154.723c0 .379.891.748 1.158.48.108-.107.114-.328.014-.491-.241-.39-1.172-.381-1.172.011m-1.374 2.246c0 .27-.309.59-.686.709-.378.12-.687.37-.687.555 0 .626-1.812 2.02-2.625 2.02-.569 0-.809.196-.809.66 0 .879 2.172.8 2.343-.085.061-.316.425-.575.809-.575.48 0 .637-.161.501-.515-.175-.455.153-.665.876-.562.13.018.334-.272.452-.646.119-.374.437-.68.708-.68.27 0 .492-.309.492-.687 0-.457-.229-.686-.687-.686-.378 0-.687.221-.687.492m-195.365 4.976c0 .491.221.712.712.712.88 0 .78-1.136-.115-1.309-.412-.079-.597.106-.597.597m189.402-.42c-.511.51-.158 1.132.641 1.132.472 0 .859-.149.859-.331 0-.432-1.219-1.083-1.5-.801m-1.326 1.741c-.128.488.006.63.556.589.848-.062.983-.967.168-1.124-.314-.061-.629.172-.724.535m-184.451.687c-.105.106-.191.409-.191.673 0 .571 1.425.463 1.618-.123.133-.405-1.097-.879-1.427-.55m182.127.592c0 .36-.363.515-1.202.515-.973 0-1.202.131-1.202.687 0 .458-.229.687-.687.687-.381 0-.686.229-.686.515 0 .286.305.515.686.515.382 0 .687-.229.687-.515 0-.36.363-.515 1.202-.515.76 0 1.17-.153 1.116-.417-.048-.229.262-.575.686-.768.958-.436 1.013-1.219.086-1.219-.381 0-.686.229-.686.515m-180.945.994c0 .525.722.895 1.745.895.362 0 .659.232.659.515 0 .286.305.515.686.515.378 0 .687-.214.687-.475s-.309-.556-.687-.655c-.377-.098-.686-.426-.686-.726 0-.397-.331-.548-1.202-.548-.798 0-1.202.161-1.202.479m4.807 2.611c0 .378.215.687.478.687.264 0 .568.233.678.518.109.285.319.492.466.46.569-.125 2.185.756 1.984 1.082-.121.195.166.344.666.344.65 0 .878-.179.878-.687 0-.458-.228-.687-.686-.687-.382 0-.687-.229-.687-.515 0-.359-.362-.515-1.202-.515-.973 0-1.201-.131-1.201-.687 0-.457-.229-.686-.687-.686-.458 0-.687.229-.687.686m170.105.43c-.138.613-.318.922-.4.686-.209-.603-1.808-.548-1.808.062 0 .27-.347.541-.772.601-1.051.149-.986 1.11.085 1.259.473.065.744.002.604-.14-.414-.422.445-1.181 1.338-1.181.455 0 .916-.232 1.024-.515.109-.283.413-.515.676-.515.263 0 .479-.309.479-.687 0-1.117-.954-.784-1.226.43m-164.203 3.261c.067.348.447.618.903.641.555.028.731-.107.596-.457-.105-.273-.191-.562-.191-.641 0-.079-.32-.143-.711-.143-.493 0-.677.184-.597.6m158.218.128c0 .571.1.646.461.347.254-.211.571-.273.705-.139.134.135.142-.021.017-.346-.32-.835-1.183-.734-1.183.138m-155.364.564c-.627.46-.526 1.111.171 1.111.378 0 .687.229.687.509 0 .557 1.462 1.063 2.041.705.782-.484.361-1.214-.7-1.214-.773 0-1.111-.187-1.242-.687-.191-.732-.408-.828-.957-.424m152.961.424c0 .534-.229.687-1.03.687-.981 0-1.449.731-.746 1.165.492.304 1.776-.194 1.776-.69 0-.261.215-.475.478-.475.687 0 .95-.935.331-1.173-.764-.293-.809-.266-.809.486m-149.7 2.38c0 .534.219.71.884.71 1.127 0 1.027-1.148-.115-1.311-.584-.083-.769.061-.769.601m145.923.024c0 .458.229.686.687.686.458 0 .687-.228.687-.686 0-.458-.229-.687-.687-.687-.458 0-.687.229-.687.687m-143.384 1.23c.114.298.208.607.208.686 0 .079.232.144.515.144.286 0 .515-.305.515-.687 0-.469-.229-.687-.723-.687-.519 0-.665.154-.515.544m140.881.143c-.131.5-.468.687-1.242.687-.715 0-1.062.168-1.062.515 0 .36-.362.515-1.201.515-.84 0-1.202.155-1.202.515 0 .286-.305.515-.687.515-.458 0-.687.229-.687.687 0 .377.142.686.316.686.67 0 1.401-.435 1.401-.835 0-.267.362-.366.996-.273.782.115 1.046-.009 1.225-.574.212-.669.598-.884 1.342-.747.165.03.529-.271.808-.669.279-.399.723-.642.987-.541.31.119.479-.054.479-.492 0-.907-1.235-.898-1.473.011m-138.441.687c-.28.452.094 1.03.667 1.03.25 0 .541.329.646.732.143.548.376.684.924.54.471-.123.978.054 1.42.497.378.378.921.598 1.205.489.72-.276.388-1.034-.511-1.166-.41-.06-.746-.331-.746-.601 0-.32-.37-.491-1.062-.491-.774 0-1.111-.187-1.242-.687-.189-.724-.943-.923-1.301-.343m76.103.999c.063 1.066.211 1.342.701 1.305.968-.073.667-2.361-.338-2.566-.312-.064-.419.308-.363 1.261m-15.783.262c.159 1.337.967 1.455.967.141 0-.732-.165-1.059-.537-1.059-.382 0-.507.268-.43.918m16.877 2.757c.094.699.416 1.45.714 1.669.299.218.544.637.544.93 0 .726 1.17.517 1.317-.236.073-.371-.153-.663-.601-.78-.571-.15-.716-.458-.716-1.521 0-1.122-.114-1.333-.715-1.333-.626 0-.693.157-.543 1.271m-71.189.127c0 .492.185.676.597.597.895-.172.995-1.309.115-1.309-.491 0-.712.221-.712.712m52.876.282c0 .566-.221 1.078-.515 1.191-.283.108-.515.511-.515.895 0 .391.226.697.515.697.286 0 .515-.305.515-.687 0-.437.229-.686.631-.686.484 0 .642-.281.676-1.202.037-.982-.078-1.202-.631-1.202-.517 0-.676.234-.676.994m71.134-.421c.135.698.637.891 1.271.49.621-.393.187-1.063-.691-1.063-.461 0-.654.191-.58.573m-121.606 1.316c0 .387.241.528.772.453.425-.061.773-.264.773-.453s-.348-.393-.773-.453c-.531-.076-.772.066-.772.453m119.017 0c-.108.283-.551.515-.984.515-.432 0-.979.309-1.215.686-.236.378-.737.687-1.113.687s-.684.16-.684.354c0 .585 1.077.813 1.403.297.167-.264.306-.352.309-.197.003.155.241.046.53-.243.289-.289.752-.438 1.03-.331.278.106.505.013.505-.207s.179-.29.397-.155c.245.152.303.094.151-.152-.15-.242.098-.528.633-.731.484-.184.879-.493.879-.686 0-.554-1.621-.411-1.841.163m-116.614.858c0 .626 1.379 1.735 2.415 1.942 1.424.285 1.414-.771-.011-1.083-.567-.125-1.03-.446-1.03-.714 0-.269-.309-.488-.687-.488-.378 0-.687.154-.687.343m69.099 1.944c-.578.234-.545 1.028.052 1.258.604.231.892-.046.892-.856 0-.639-.174-.713-.944-.402m-65.322.591c0 .511.931.878 1.631.642.88-.296.438-1.117-.601-1.117-.648 0-1.03.176-1.03.475m41.889.212c0 .378-.214.687-.475.687-.597 0-.995 1.414-.53 1.879.398.399.991-.336.999-1.238.003-.309.315-.642.692-.741.378-.099.687-.426.687-.727 0-.318-.287-.547-.687-.547-.458 0-.686.229-.686.687m64.456-.027c-.104.398-.534.705-1.08.773-1.174.145-1.176.766-.003.911.544.068.82-.026.692-.234-.28-.452.419-.868 1.499-.89.537-.011.905-.244.978-.619.176-.901-1.849-.844-2.086.059m-40.02.936c.066.345.403.683.749.749.454.087.594-.053.507-.507-.066-.346-.404-.683-.749-.749-.454-.087-.594.053-.507.507m-64.265.293c0 .359.363.515 1.202.515 1.102 0 1.386.263 1.234 1.141-.027.155.301.232.728.171 1.148-.163 1.255-1.312.123-1.312-.556 0-.883-.191-.883-.515 0-.36-.363-.515-1.202-.515s-1.202.155-1.202.515m65.465.744c-.435.435-.226.801.458.801.382 0 .687-.229.687-.515 0-.523-.727-.705-1.145-.286m34.598.372c.121.825 1.416.856 1.478.035.034-.453-.185-.636-.759-.636-.573 0-.781.174-.719.601m-62.638.923c0 .717.712 1.048 1.063.494.466-.735.369-.988-.376-.988-.378 0-.687.222-.687.494m-32.532.278c.216.65 1.288.742 1.288.111 0-.318-.294-.54-.716-.54-.419 0-.656.177-.572.429m92.961.086c0 .354.225.522.601.45.724-.14.678-.749-.067-.904-.312-.065-.534.124-.534.454m-90.497 1.097c.047.321.303.652.57.737.267.086.609.364.76.62.38.643 1.957.603 1.957-.051 0-.502-.389-.66-1.314-.534-.251.034-.539-.257-.641-.646-.225-.861-1.457-.977-1.332-.126m88.094.057c0 .496-.264.719-.944.798-1.163.133-1.111.755.075.903.606.076.869-.054.869-.429 0-.315.294-.538.712-.538.491 0 .676-.184.597-.596-.169-.879-1.309-.999-1.309-.138m-60.773 1.078c-.319.597-.261.687.446.687.988 0 1.284-.255 1.039-.892-.268-.7-1.059-.59-1.485.205m33.226.08c.13.495.392.627 1.01.509.643-.123.907.028 1.145.655.171.449.53.816.797.816.268 0 .576.232.685.515.108.283.434.515.723.515a.522.522 0 0 0 .526-.515.517.517 0 0 0-.515-.515c-.283 0-.515-.298-.515-.663 0-.423-.279-.705-.773-.781-.425-.064-.734-.307-.686-.538.047-.232-.185-.441-.515-.465-.331-.024-.929-.08-1.329-.123-.567-.061-.689.068-.553.59m-56.917 1.085c0 .45.697.895 1.402.895.173 0 .315-.309.315-.687 0-.503-.229-.686-.858-.686-.505 0-.859.197-.859.478m21.631.069c0 .301-.309.628-.686.726-.751.197-.956 1.13-.248 1.13.241 0 .709-.316 1.039-.701.33-.386.741-.614.914-.508.172.107.29-.119.261-.5-.062-.827-1.28-.967-1.28-.147m58.713.139c0 .504.229.687.858.687.63 0 .858-.183.858-.687 0-.503-.228-.686-.858-.686-.629 0-.858.183-.858.686m-77.856 1.116c.217.66 1.633.756 1.633.11 0-.351-.31-.539-.887-.539-.556 0-.835.16-.746.429m75.796.086c0 .286.305.515.686.515.382 0 .687-.229.687-.515 0-.286-.305-.515-.687-.515-.381 0-.686.229-.686.515m-73.382 1.202c-.043.561.16.686 1.111.686.723 0 1.283.214 1.48.565.592 1.058 9.331.976 9.331-.087 0-.384-.884-.478-4.495-.478-4.207 0-4.507-.044-4.675-.686-.139-.53-.469-.687-1.44-.687-1.014 0-1.271.134-1.312.687m11.922-.192c0 .701.59.977 1.565.732 1.324-.332 1.06-1.227-.363-1.227-.817 0-1.202.158-1.202.495m46.076.106c.076.391.443.606 1.052.616.517.009 1.153.315 1.425.687.7.956 8.646 1.008 9.177.06.213-.381.751-.591 1.515-.591.956 0 1.185-.132 1.185-.686 0-.573-.229-.687-1.374-.687-1.144 0-1.373.114-1.373.687 0 .651-.229.686-4.496.686-4.207 0-4.507-.044-4.675-.686-.246-.939-2.619-1.023-2.436-.086" fill="#9bcecc"/><path d="M49.281 92.001c-.111.179-1.202.819-2.424 1.42-1.222.602-2.222 1.217-2.222 1.367 0 .15-.31.371-.689.492-.379.12-1.227.942-1.883 1.825a75.994 75.994 0 0 1-1.537 2.016c-.854 1.018-1.74 2.986-1.944 4.317-.122.8-.433 1.872-.69 2.382-.7 1.39-.697 162.259.003 163.639.259.51.578 1.661.708 2.558.131.897.349 1.631.484 1.631.136 0 .437.425.67.944 1.268 2.836 5.844 7.296 7.486 7.296.33 0 .899.271 1.264.601.894.81 48.731 1.128 49.82.331.594-.434.552-.579-.767-2.67-1.173-1.858-3.09-5.363-5.059-9.249-.96-1.895-3.697-8.915-4.453-11.42-1.915-6.348-1.868-4.1-1.868-88.99V92.344l-.88-.335c-1.172-.446-35.744-.454-36.019-.008m270.501-.09c-1.178.231-1.155-1.347-1.162 80.922-.005 50.139-.131 79.541-.348 81.073-.502 3.542-2.516 9.835-4.614 14.42-.433.944-1.057 2.335-1.388 3.09-.51 1.164-2.807 5.334-5.481 9.948-.373.643-.553 1.295-.4 1.448.693.694 48.301.504 49.797-.198.776-.364 1.758-.764 2.183-.889.425-.124.773-.37.773-.546 0-.177.177-.321.393-.321 1.54 0 6.817-6.66 6.817-8.604 0-.483.227-1.178.504-1.545.323-.426.494-1.407.475-2.726-.016-1.133-.089-1.751-.164-1.374-1.533 7.793-4.197 12.239-8.607 14.364-.719.347-1.878.926-2.577 1.288-1.374.712-48.055 1.058-48.487.36-.101-.164.122-.574.495-.912.373-.337.679-.755.679-.927 0-.172.371-.805.824-1.406a15.039 15.039 0 0 0 1.377-2.294c.304-.661.926-1.897 1.383-2.747 1.9-3.54 3.626-7.299 3.626-7.9 0-.354.15-.736.334-.85.184-.113.5-.856.703-1.651.203-.795.675-2.178 1.049-3.074.373-.897 1.061-3.475 1.528-5.73l.849-4.099v-78.964c0-43.43.094-79.208.209-79.507.242-.632 34.24-.849 34.628-.221.109.177 1.08.738 2.156 1.248 4.08 1.93 7.254 5.241 8.23 8.585 1.243 4.259 1.833 5.811 1.686 4.437-.182-1.699-1.292-5.452-1.659-5.608-.149-.063-.271-.31-.271-.549 0-.683-3.25-4.802-4.16-5.272a30.385 30.385 0 0 1-1.849-1.076 52.989 52.989 0 0 0-2.692-1.541l-1.663-.889-17.221.047c-9.472.025-17.552.111-17.955.19m-235.331.77c.242.453.356 25.834.356 79.567v78.904l.895 4.295c.492 2.363 1.187 4.944 1.545 5.736.357.792.65 1.816.65 2.275 0 .46.222 1.02.493 1.245.271.225.597.882.724 1.461.202.919 2.35 5.688 3.216 7.141.169.283.777 1.519 1.35 2.747.574 1.227 1.343 2.552 1.708 2.944.366.393.772 1.048.902 1.458.129.409.467.975.75 1.258 1.159 1.159.245 1.206-23.258 1.206-22.166 0-23.41-.032-24.615-.645a121.06 121.06 0 0 0-2.538-1.245c-1.567-.741-4.886-3.662-5.578-4.909-1.426-2.569-2.024-4.168-2.449-6.552-.754-4.229-.709-160.186.048-164.175 1.048-5.525 3.37-8.708 8.389-11.495l3.261-1.812 16.898-.034c16.373-.033 16.909-.013 17.253.63" fill="#54b490"/><path d="M101.483 28.88c.349.564-.54.974-1.639.754-.81-.162-.96-.078-.96.538 0 .485-.216.729-.647.729-.357 0-.726.307-.826.687-.131.5-.468.687-1.242.687-.715 0-1.062.168-1.062.515a.516.516 0 0 1-.515.515c-.286 0-.515.305-.515.686 0 .772-1.19.976-1.503.258-.102-.236-.096.005.014.536.164.785.065 1.001-.528 1.156-.423.111-.73.467-.73.848 0 .362-.217.741-.484.843-.266.102-.578.561-.693 1.019-.115.459-.438.834-.717.834-.28 0-.509.309-.509.687 0 .47-.229.686-.727.686-.603 0-.697.157-.55.923.219 1.145-.022 1.824-.648 1.824-.35 0-.478.498-.478 1.852 0 1.652-.696 2.909-1.094 1.977-.06-.139-.405.051-.769.422-.543.556-.558.636-.085.455.316-.122.607-.187.647-.146.267.274.664 55.104.893 123.337.281 83.774.261 82.764 1.782 87.273.833 2.471.662 1.043-.214-1.779-.745-2.399-1.092-117.808-.538-178.713l.282-31.073 1.285-2.575c2.321-4.654 2.706-5.241 5.072-7.732 7.096-7.47 14.703-8.864 21.751-3.985.945.653 3.547 2.669 5.783 4.478a523.136 523.136 0 0 0 5.259 4.214 69.837 69.837 0 0 1 2.683 2.232c.82.72 2.681 2.313 4.136 3.54 3.827 3.228 10.785 9.278 14.794 12.863 1.908 1.706 4.523 4.03 5.811 5.163a415.966 415.966 0 0 1 6.681 6.008c.512.472 2.209 2.017 3.769 3.434 5.437 4.936 13.059 13.216 13.059 14.187 0 .27 1.685 2.745 2.024 2.973.236.158.751.966 2.813 4.416.752 1.256 4.634 8.502 5.457 10.183 1.27 2.597 2.474 5.84 2.759 7.435.157.879.529 2.069.826 2.644.298.575.541 1.579.541 2.231 0 .651.348 3.324.773 5.94l.772 4.755v176.824l-.81 2.575c-.445 1.416-.95 2.807-1.122 3.09-.172.283-.531.979-.796 1.545-1.5 3.199-5.483 7.813-8.627 9.997-3.062 2.126-3.928 2.477-6.702 2.718-4.394.383-6.678-.203-11.642-2.986a17.477 17.477 0 0 0-1.318-.634c-.442-.19-1.849-1.022-3.127-1.849-1.278-.827-2.694-1.619-3.145-1.761-.452-.142-1.191-.545-1.641-.897-.45-.352-.963-.639-1.14-.639-.176 0-.995-.464-1.818-1.03-.823-.567-1.721-1.031-1.994-1.031-.273 0-.684-.225-.913-.501-.229-.276-.725-.6-1.101-.719-.377-.12-2.024-.993-3.66-1.94-1.637-.947-3.285-1.859-3.662-2.027a11.59 11.59 0 0 1-1.202-.627c-1.564-.981-7.279-4.144-8.743-4.839-.937-.445-1.978-1.044-2.313-1.33-.335-.287-1.761-1.146-3.169-1.908-9.087-4.923-17.534-10.68-20.797-14.174-4.929-5.277-6.597-7.647-9.406-13.362-.85-1.73-1.708-3.246-1.906-3.368-.442-.274-.48.242-.051.692.171.18 1.027 1.717 1.903 3.417.875 1.699 2.192 4.017 2.926 5.15.735 1.133 1.347 2.301 1.36 2.595.013.295.251.835.528 1.202s.509.942.515 1.278c.006.337.243.701.526.809.283.109.515.573.515 1.03 0 .458.247.928.55 1.044.716.274 2.197 1.761 2.197 2.204 0 .19.464.507 1.03.705.567.197 1.03.498 1.03.669 0 .17.327.309.727.309.541 0 .684.165.558.644-.13.5-.02.604.496.469.471-.123.719.039.855.559.107.41.467.732.817.732.345 0 .737.178.872.396.151.246.094.304-.152.152-.237-.147-.396-.021-.396.315 0 .37.262.538.772.497 1.59-.129 2.052.003 1.851.528-.153.397.075.515.993.515.861 0 1.191.152 1.191.548 0 .3.309.628.686.726.378.099.687.394.687.655 0 .314.408.475 1.202.475.973 0 1.202.131 1.202.686 0 .556.228.687 1.201.687.84 0 1.202.156 1.202.515 0 .286.305.515.687.515.458 0 .686.229.686.687 0 .531.229.687 1.007.687.722 0 1.072.204 1.237.722.183.578.421.685 1.189.531.756-.151.996-.05 1.135.479.128.49.472.671 1.277.671.9 0 1.072.116.938.63-.134.511-.007.6.667.471.634-.121.878.015 1.023.572.139.532.46.73 1.181.73.779 0 .99.155.99.725 0 .638.14.699 1.16.508.975-.183 1.188-.107 1.341.477.133.508.467.694 1.244.694.692 0 1.062.171 1.062.491 0 .27.348.541.773.601.489.07.755.33.724.711-.037.467.221.6 1.156.6 1.024 0 1.178.1 1.029.669-.15.573.03.684 1.248.773.913.066 1.391.257 1.336.533-.055.278.338.429 1.116.429.809 0 1.202.159 1.202.488 0 .268.463.589 1.03.714.657.144 1.03.439 1.03.816 0 .473.24.563 1.202.45 1.209-.141 1.789.671.772 1.081-.236.095.305.186 1.202.201 1.209.02 1.631.16 1.631.542 0 .326.328.515.898.515.729 0 .865.129.719.686-.154.588-.011.687.99.687.811 0 1.17.158 1.17.515 0 .356.357.515 1.161.515.885 0 1.206.169 1.347.708.102.389.39.68.641.646.925-.126 1.314.032 1.314.534 0 .344.343.516 1.03.516.801 0 1.03.152 1.03.686 0 .556.229.687 1.202.687.839 0 1.202.155 1.202.515 0 .387.415.515 1.676.515 1.388 0 1.708.118 1.857.687.168.644.468.686 4.814.686 4.466 0 4.629-.025 4.456-.686-.162-.621-.011-.687 1.577-.687 1.267 0 1.757-.133 1.757-.475 0-.261.309-.556.687-.655.377-.098.686-.425.686-.726 0-.353.301-.547.847-.547.494 0 .998-.286 1.213-.687.412-.77 1.226-.911 1.49-.258.095.236.185.005.2-.515.02-.69.203-.944.682-.944.485 0 .608-.177.475-.687-.136-.518-.011-.686.509-.686.378 0 .681-.193.672-.429-.042-1.149.137-1.631.608-1.631.286 0 .515-.306.515-.687 0-.458.228-.687.686-.687.557 0 .687-.229.687-1.212 0-.761.192-1.286.515-1.41.294-.113.515-.625.515-1.191 0-.765.158-.994.687-.994.699 0 .815-.356.697-2.146-.043-.656.102-.944.479-.944.491 0 .54-8.577.54-92.912 0-82.448-.058-92.89-.515-92.715-.436.168-.515-.323-.515-3.225 0-3.194-.046-3.422-.686-3.422-.61 0-.687-.229-.687-2.05 0-1.68-.093-2.014-.515-1.851-.478.183-.723-1.696-.566-4.34.021-.345-.032-.374-.159-.086-.472 1.065-1.163.401-1.163-1.116 0-1.144-.134-1.545-.515-1.545-.474 0-.662-.796-.566-2.403.02-.346-.032-.374-.16-.086-.415.936-1.163.432-1.163-.783 0-.761-.192-1.286-.515-1.41-.314-.121-.515-.641-.515-1.331 0-.964-.102-1.106-.687-.953-.557.146-.686.011-.686-.719 0-.597-.186-.898-.553-.898-.427 0-.521-.267-.415-1.178.076-.648.054-1.17-.048-1.161-1.128.102-1.388-.135-1.388-1.266 0-.973-.131-1.202-.686-1.202-.458 0-.687-.229-.687-.687 0-.381-.229-.687-.515-.687-.314 0-.515-.319-.515-.818 0-.529-.242-.882-.687-.998a.913.913 0 0 1-.687-.898c0-.41-.221-.719-.515-.719-.286 0-.515-.305-.515-.687 0-.397-.228-.686-.543-.686-.299 0-.473-.194-.386-.43.086-.236.342-.386.569-.334.226.051.312-.067.191-.264-.122-.196-.365-.268-.541-.159-.176.108-.32-.044-.32-.338 0-.296-.289-.535-.646-.535-.358 0-.727-.307-.826-.687-.099-.378-.426-.687-.727-.687-.319 0-.547-.287-.547-.687 0-.381-.229-.686-.515-.686-.36 0-.527-.39-.555-1.288-.022-.708-.111-1.017-.197-.687-.193.737-.745.784-1.013.086-.108-.283-.431-.515-.716-.515-.342 0-.459-.224-.346-.659.135-.513.021-.63-.51-.528-.457.088-.741-.091-.859-.542-.097-.371-.39-.674-.651-.674-.262 0-.475-.232-.475-.515 0-.286-.306-.515-.687-.515-.458 0-.687-.229-.687-.687 0-.378-.215-.687-.478-.687s-.567-.231-.676-.515c-.109-.283-.416-.515-.683-.515-.267 0-.567-.309-.666-.686-.098-.378-.425-.687-.726-.687-.328 0-.548-.29-.548-.723 0-.48-.162-.662-.481-.539-.286.11-.551-.084-.654-.478-.103-.395-.471-.663-.908-.663-.508 0-.702-.185-.633-.601.073-.432-.164-.632-.843-.71-.579-.066-.944-.315-.944-.643 0-.436.095-.455.515-.107.371.308.515.317.515.032 0-.218-.232-.485-.515-.594-.283-.109-.515-.413-.515-.676 0-.442-.87-.654-2.021-.493-.311.043-.417-.161-.305-.59.141-.535.023-.627-.639-.5-.598.114-.812 0-.812-.432 0-.323-.309-.668-.687-.767-.377-.099-.686-.394-.686-.655s-.232-.475-.515-.475c-.284 0-.515-.246-.515-.547 0-.301-.321-.631-.712-.733-.56-.147-.673-.379-.529-1.084.101-.494.099-.704-.003-.468-.258.593-1.503.541-1.503-.063 0-.271-.323-.594-.718-.72-.496-.157-.665-.43-.547-.881.108-.414-.007-.654-.312-.654-.266 0-.483-.241-.483-.535 0-.295-.145-.446-.322-.336-.178.109-.482-.075-.677-.409-.194-.335-.358-.415-.364-.179-.015.616-1.041.532-1.041-.086 0-.283-.246-.515-.547-.515-.301 0-.628-.309-.727-.687-.098-.377-.398-.686-.665-.686s-.575-.232-.683-.515c-.109-.284-.413-.515-.676-.515-.263 0-.478-.309-.478-.687 0-.388-.229-.687-.526-.687-.289 0-.609-.216-.711-.481-.101-.265-.503-.564-.892-.666-.445-.117-.636-.371-.515-.687.119-.31-.062-.568-.472-.675-.455-.119-.594-.356-.443-.751.163-.424.051-.558-.428-.507-1.406.15-1.925-.007-1.726-.525.143-.372-.038-.515-.65-.515-.493 0-.848-.199-.848-.475 0-.261-.309-.555-.686-.654-.378-.099-.687-.426-.687-.727a.553.553 0 0 0-.555-.547c-.386 0-.501-.209-.376-.687.134-.509.011-.687-.475-.687-.36 0-.654-.231-.654-.515 0-.283-.116-.496-.258-.474-1.286.203-2.212-.092-2.064-.658.114-.435-.045-.633-.538-.67-.385-.029-.833-.292-.997-.584-.164-.293-.522-.532-.795-.532a.508.508 0 0 1-.498-.515.521.521 0 0 0-.524-.515c-.288 0-.663-.367-.834-.816-.244-.642-.497-.779-1.193-.646-.723.138-.883.037-.883-.558 0-.424-.219-.727-.526-.727-.289 0-.614-.232-.723-.515-.109-.283-.413-.515-.676-.515-.263 0-.478-.309-.478-.687 0-.457-.229-.686-.687-.686-.605 0-.837-.341-.738-1.085.017-.124-.44-.151-1.015-.061-.844.133-1.081.028-1.231-.546-.11-.421-.467-.712-.873-.712-.531 0-.643-.165-.496-.728.174-.665.085-.711-1.026-.531-1.012.165-1.247.085-1.393-.473-.165-.632-.508-.671-5.821-.671-4.054 0-5.578.107-5.409.382m190.83.219c.037.466-.22.601-1.149.601-.865 0-1.228.166-1.312.6-.064.331-.415.601-.778.601-.447 0-.662.238-.662.732 0 .648-.141.709-1.238.531-1.034-.168-1.267-.091-1.413.47-.097.369-.312.671-.479.671-.167 0-.303.309-.303.686 0 .458-.229.687-.687.687-.378 0-.687.214-.687.475s-.309.556-.687.655c-.377.098-.686.425-.686.726s-.232.548-.515.548c-.284 0-.515-.15-.515-.333 0-.183-.241-.24-.535-.127-.294.112-.452.422-.35.687.114.296-.142.605-.667.805-.468.178-.852.56-.852.847 0 .288-.147.524-.327.524-.426 0-2.076 1.65-2.076 2.076 0 .18-.309.327-.687.327-.381 0-.687.229-.687.515 0 .357-.358.515-1.163.515-.898 0-1.153.138-1.116.601.032.404-.19.594-.676.579-.533-.016-.681.141-.562.597.096.365-.065.706-.392.831-.305.117-.554.446-.554.731 0 .36-.248.471-.811.363-.661-.126-.78-.034-.642.495.12.457-.048.708-.562.842-.402.106-.732.405-.732.667 0 .314-.407.475-1.202.475-.661 0-1.201.149-1.201.332 0 .183.257.234.571.114.384-.148.49-.088.323.182-.136.221-.771.402-1.409.402-.639 0-1.272.178-1.406.396-.147.237-.095.304.127.166.205-.126.465-.081.578.102.113.182-.108.499-.491.704-.383.205-.697.599-.697.876a.51.51 0 0 1-.515.503c-.283 0-.515.213-.515.475 0 .261-.309.555-.686.654-.378.099-.687.426-.687.727s-.215.547-.478.547-.568.232-.676.515c-.109.283-.435.515-.724.515-.296 0-.526.299-.526.685 0 .595-.168.661-1.287.5-.891-.127-1.136-.082-.795.148.668.449-.107 1.416-.997 1.244-.407-.078-.696.126-.813.574-.1.382-.346.593-.548.468-.217-.133-.366.078-.366.518 0 .52-.155.684-.515.546-.373-.143-.515.037-.515.65 0 .618-.186.847-.687.847-.378 0-.687.222-.687.492 0 .271-.309.59-.687.71-.377.12-.686.439-.686.71 0 .27-.232.492-.515.492-.284 0-.515.213-.515.475 0 .261-.309.555-.687.654-.378.099-.687.426-.687.727 0 .315-.286.547-.676.547-.459 0-.612.165-.478.515.157.409-.111.516-1.298.52-1.044.004-1.345.101-.998.321.275.174.622.239.773.146.151-.093.274.072.274.366 0 .383-.342.536-1.202.536-.993 0-1.202.125-1.202.723 0 .502-.157.663-.515.526-.35-.135-.515.018-.515.478 0 .372-.213.676-.475.676-.261 0-.555.309-.654.687-.099.377-.426.686-.727.686s-.547.232-.547.515c0 .287-.305.515-.687.515-.458 0-.686.229-.686.687 0 .382-.229.687-.515.687a.516.516 0 0 0-.515.515c0 .286-.306.515-.687.515-.458 0-.687.229-.687.687 0 .387-.229.686-.526.686-.289 0-.614.232-.723.515-.109.284-.413.515-.676.515-.263 0-.478.327-.478.727 0 .579-.165.695-.812.572-.653-.125-.779-.032-.646.475.109.419-.021.63-.391.63-.326 0-.555.283-.555.686 0 .378-.213.687-.475.687-.261 0-.555.309-.654.687-.101.386-.469.687-.839.687-.538 0-.632.19-.508 1.03.115.788.018 1.03-.414 1.03-.311 0-.664.27-.786.6-.121.331-.425.725-.676.876-.25.151-.455.653-.455 1.116 0 .712-.171.847-1.115.881-.614.022-.863.107-.552.19.365.097.502.385.389.818-.196.749-.975.899-1.241.24-.095-.236-.185-.005-.2.515-.016.561-.201.909-.457.858-.272-.054-.469.416-.54 1.288-.061.755-.332 1.497-.601 1.648-.269.151-.489.653-.489 1.115 0 .613-.187.842-.687.842-.675 0-.846.454-.697 1.85.051.478-.099.605-.572.481-.546-.143-.622-.002-.511.948.105.896-.012 1.162-.59 1.345-.553.176-.72.512-.72 1.444 0 .939-.117 1.171-.515 1.018-.376-.144-.515.041-.515.682 0 .591-.226.939-.687 1.059-.558.146-.687.469-.687 1.725 0 1.397-.068 1.527-.715 1.358-.649-.17-.709-.053-.641 1.247.115 2.198.027 2.637-.532 2.637-.418 0-.515.553-.515 2.918 0 2.79-.539 3.955-1.152 2.489-.099-.236-.095.388.008 1.387.253 2.441-.13 4.88-.766 4.88-.43 0-.483 12.089-.408 91.931.055 58.606.206 91.891.416 91.82.393-.133.814.828.848 1.934.015.516-.115.707-.373.548-.245-.152-.303-.094-.151.151.135.218.545.397.911.397.546 0 .667.242.667 1.333 0 1.058.146 1.372.707 1.518.612.16.675.356.47 1.451-.225 1.201-.197 1.253.542 1.019.686-.218.76-.148.62.584-.128.668-.019.827.554.811.508-.015.706.186.69.703-.016.534.141.681.601.56.412-.107.623.026.623.393 0 .305-.271.567-.601.582-.425.019-.463.082-.129.214.656.261 1.931 1.575 1.931 1.99 0 .189.232.358.515.377l1.288.086c.425.029.734.242.687.474-.048.231.261.474.686.538.494.076.773.358.773.781 0 .365.232.663.515.663.283 0 .515.232.515.515 0 .387.415.515 1.677.515 1.388 0 1.707.118 1.856.687.279 1.065 9.171 1.065 9.171 0 0-.604.229-.687 1.888-.687 1.45 0 1.889-.12 1.889-.515 0-.343.343-.515 1.03-.515.801 0 1.03-.153 1.03-.687 0-.556.229-.686 1.201-.686.779 0 1.172-.152 1.116-.43-.048-.241.328-.476.859-.537.678-.079.944-.302.944-.795 0-.447.209-.664.601-.624 1.264.129 1.802-.037 1.802-.555 0-.305.259-.51.601-.475 1.39.141 1.763-.02 1.631-.705-.112-.581.053-.686 1.07-.686.661 0 1.113-.144 1.005-.32-.265-.429.194-.676 1.433-.771.802-.061.991-.213.865-.695-.136-.52.06-.618 1.242-.618 1.105 0 1.36-.109 1.205-.515-.137-.357.023-.515.522-.515.397 0 .914-.309 1.15-.687.236-.377.783-.686 1.215-.686.433 0 .876-.232.984-.515.128-.333.66-.515 1.503-.515 1.154 0 1.282-.083 1.116-.718-.154-.591-.043-.705.633-.649 1.42.12 1.679.012 1.679-.693 0-.458.229-.687.687-.687.382 0 .687-.229.687-.515 0-.36.362-.515 1.202-.515.839 0 1.201-.155 1.201-.515 0-.347.347-.515 1.062-.515.774 0 1.111-.187 1.242-.687.135-.516.469-.687 1.341-.687.956 0 1.162-.129 1.162-.729 0-.622.147-.7.994-.531.86.172.97.109.818-.472-.146-.56.002-.671.895-.671.829 0 1.07-.149 1.07-.665 0-.568.175-.637 1.202-.47 1.058.172 1.201.108 1.201-.537 0-.421.219-.731.515-.731.621 0 .664.4.103.961-.293.293-.299.412-.023.412.214 0 .487-.309.607-.687.12-.377.422-.686.672-.686.249 0 .432-.271.406-.601-.03-.38.235-.641.725-.711.425-.06.772-.331.772-.601 0-.61 1.599-.665 1.808-.062.082.236.262-.073.4-.686.212-.947.402-1.116 1.253-1.116.662 0 1.003-.175 1.003-.515 0-.286.305-.515.686-.515.458 0 .687-.229.687-.687 0-.556.229-.687 1.202-.687.839 0 1.202-.155 1.202-.515 0-.441 1.233-.726 2.454-.567.122.016.136-.299.031-.7-.158-.606-.069-.698.525-.542.504.131.663.051.539-.273-.291-.757.192-1.222.884-.852.528.282.593.209.455-.514-.136-.712-.029-.844.687-.844.844 0 2.665-1.38 2.665-2.02 0-.185.309-.435.687-.555.377-.119.686-.439.686-.709 0-.271.309-.492.687-.492.378 0 .687-.219.687-.487 0-.267.193-.564.429-.659.343-.139.343-.179 0-.201-.236-.015-.429-.199-.429-.41 0-.211.297-.306.661-.211.462.121.606.031.479-.301-.193-.501 1.59-4.292 3.374-7.173 2.395-3.87 5.868-11.119 5.098-10.644-.16.1-.469.718-.686 1.375-.217.657-.749 1.852-1.182 2.656-.433.804-1.529 2.853-2.436 4.553-3.244 6.08-8.518 12.188-13.192 15.278-.428.284-1.418.99-2.199 1.57-.781.58-1.651 1.162-1.935 1.293-.283.131-1.21.695-2.06 1.252a51.279 51.279 0 0 1-2.881 1.743c-.735.401-2.049 1.228-2.919 1.836-.87.608-2.635 1.636-3.923 2.285-1.288.649-2.601 1.42-2.919 1.714-.317.294-1.735 1.099-3.152 1.791-1.416.691-3.347 1.726-4.291 2.299-.945.573-2.258 1.291-2.919 1.595-.661.305-1.279.652-1.373.773-.095.12-.713.486-1.374.814-.661.327-2.128 1.132-3.261 1.788-1.134.657-2.292 1.289-2.576 1.404a8.343 8.343 0 0 0-1.03.532c-.283.176-.901.507-1.373.735-.472.228-1.476.8-2.232 1.271-.755.471-2.455 1.419-3.777 2.107-1.321.688-3.176 1.726-4.12 2.307s-3.645 2.033-6.001 3.227l-4.285 2.171-4.127-.017-4.128-.017-1.98-1.27c-1.09-.699-2.056-1.271-2.146-1.271-.181 0-1.006-.733-3.02-2.682-2.916-2.821-6.451-8.2-7.126-10.844a32.895 32.895 0 0 0-.77-2.44c-1.278-3.531-1.039-176.797.252-182.661.291-1.322.532-3.214.536-4.204.003-.991.309-2.691.68-3.777.371-1.087.834-2.704 1.029-3.593.194-.89.74-2.463 1.213-3.497.473-1.034.86-2.103.86-2.375 0-.273.217-.675.482-.895.264-.22.577-.78.693-1.246.117-.465.913-2.03 1.768-3.476.855-1.446 1.94-3.415 2.411-4.376.763-1.555 2.281-3.923 3.749-5.85.281-.368.511-.785.511-.926 0-.813 5.558-7.553 9.148-11.092 3.856-3.802 14.358-13.429 18.007-16.507.876-.738 6.944-6.153 7.876-7.027a90.237 90.237 0 0 1 2.244-1.95c.932-.789 2.159-1.845 2.725-2.348a97.294 97.294 0 0 1 2.685-2.25 66.776 66.776 0 0 0 2.747-2.351c3.342-3.103 8.604-7.428 15.208-12.504 7.304-5.613 11.388-6.25 18.33-2.862 3.77 1.84 10.987 9.961 10.987 12.363 0 .263.343.915.763 1.448l.762.97.272 31.437c.303 35.056.156 175.653-.186 177.532l-.218 1.202.401-1.202c.3-.897.453-21.756.603-82.232.153-61.211.302-81.366.611-82.403.297-.996.412-7.107.417-22.232.006-13.534.128-20.858.349-20.858.187 0 .075-.309-.248-.687-.324-.378-.786-.687-1.027-.687-.292 0-.439-.522-.439-1.556 0-1.066-.162-1.618-.515-1.753-.318-.122-.515-.644-.515-1.363 0-.936-.135-1.165-.686-1.165-.573 0-.687-.229-.687-1.373 0-.775-.166-1.373-.38-1.373-.213 0-.288.264-.171.6.174.501.123.49-.307-.065-.283-.367-.516-.864-.516-1.105 0-.249-.222-.353-.515-.241-.351.135-.515-.02-.515-.486a.917.917 0 0 0-.686-.863c-.378-.099-.687-.426-.687-.727s-.232-.547-.515-.547a.522.522 0 0 1-.515-.526c0-.289-.27-.627-.601-.751-.33-.124-.755-.415-.944-.647-.189-.232-.652-.479-1.03-.549-.396-.074-.667-.377-.639-.716.033-.404-.209-.588-.773-.588-.591 0-.82-.191-.82-.686 0-.378-.219-.687-.486-.687-.268 0-.565-.193-.66-.429-.103-.257-.184-.188-.2.171-.038.828-1.08.76-1.301-.085-.261-.997-11.385-1.082-11.306-.086m-83.762 165.407c0 3.022.053 4.212.117 2.645a79.187 79.187 0 0 0-.001-5.493c-.064-1.455-.116-.173-.116 2.848m108.251 64.3c-.32.893-.576 1.855-.569 2.138.007.283.325-.391.706-1.499.381-1.107.637-2.07.568-2.138-.068-.068-.386.606-.705 1.499m-228.218 2.357c0 .396 3.418 8.804 3.68 9.052.245.231-.217-1.304-.776-2.576-.249-.566-.936-2.262-1.527-3.769-1.076-2.739-1.377-3.332-1.377-2.707m226.34 3.289c-.606 1.534-1.028 2.863-.939 2.952.089.089.264-.13.388-.488.125-.357.607-1.626 1.072-2.82.464-1.193.785-2.229.713-2.301-.072-.073-.628 1.123-1.234 2.657" fill="#71a4ef"/></g></svg>